<svg version="1.1" id="Layer_1" xmlns="http://www.w3.org/2000/svg" xmlns:xlink="http://www.w3.org/1999/xlink" x="0px" y="0px"
	 width="100%" viewBox="0 0 500 500" enable-background="new 0 0 500 500" xml:space="preserve">
<path fill="#E3F2E1" opacity="1.000000" stroke="none" 
	d="
M330.000000,501.000000 
	C220.000031,501.000000 110.500053,501.000000 1.000059,501.000000 
	C1.000039,334.333405 1.000039,167.666794 1.000020,1.000148 
	C167.666565,1.000099 334.333130,1.000099 500.999756,1.000049 
	C500.999847,167.666519 500.999847,334.333038 500.999939,500.999786 
	C444.166656,501.000000 387.333344,501.000000 330.000000,501.000000 
M325.577484,439.065216 
	C337.485962,433.155487 349.925079,428.112000 361.216553,421.195068 
	C433.432037,376.957520 470.267700,291.722321 452.687317,210.124207 
	C432.874756,118.165489 352.747894,52.451199 256.941589,49.123947 
	C225.207901,48.021870 194.796814,54.333691 165.613449,66.927574 
	C86.987595,100.858002 37.860497,182.168228 44.824478,266.814453 
	C48.097233,306.594269 61.997673,342.215363 86.536667,373.539978 
	C142.618973,445.130402 238.139389,471.378571 325.577484,439.065216 
z"/>
<path fill="#50A060" opacity="1.000000" stroke="none" 
	d="
M325.213165,439.199036 
	C238.139389,471.378571 142.618973,445.130402 86.536667,373.539978 
	C61.997673,342.215363 48.097233,306.594269 44.824478,266.814453 
	C37.860497,182.168228 86.987595,100.858002 165.613449,66.927574 
	C194.796814,54.333691 225.207901,48.021870 256.941589,49.123947 
	C352.747894,52.451199 432.874756,118.165489 452.687317,210.124207 
	C470.267700,291.722321 433.432037,376.957520 361.216553,421.195068 
	C349.925079,428.112000 337.485962,433.155487 325.213165,439.199036 
M323.889587,330.593689 
	C324.145477,328.662506 324.235992,326.689270 324.713165,324.814392 
	C325.053284,323.478088 325.913361,322.274109 326.541443,321.011078 
	C327.056946,322.200500 327.858826,323.352173 328.021637,324.588043 
	C328.273285,326.498138 328.087982,328.465759 328.087982,330.935455 
	C334.583374,330.935455 340.496918,330.935455 346.946411,330.935455 
	C346.946411,335.355957 346.946411,339.261963 346.946411,343.276611 
	C356.238129,343.276611 364.966797,343.276611 373.676239,343.276611 
	C374.888092,312.863037 340.660461,286.170837 303.842987,284.235565 
	C300.500854,293.757477 297.118408,303.394226 293.309479,314.245941 
	C289.506195,303.443787 286.111511,293.802246 282.634308,283.926208 
	C259.788910,286.895508 239.789642,294.802948 224.969284,312.817139 
	C217.827286,321.498260 213.579758,331.452179 213.888947,343.320099 
	C248.460815,343.320099 282.685638,343.320099 317.536011,343.320099 
	C317.536011,339.142761 317.536011,335.238770 317.536011,331.110870 
	C319.774750,330.999603 321.405182,330.918610 323.889587,330.593689 
M131.283081,184.970215 
	C124.410728,202.092880 128.944290,218.657516 143.717117,229.768829 
	C156.273453,239.212967 170.462677,241.710251 185.806503,239.562714 
	C188.946503,239.123230 192.421906,239.345154 195.455963,240.237335 
	C202.212204,242.223999 208.787140,244.827194 216.315536,247.490295 
	C214.726471,241.942032 213.624023,237.290085 212.036026,232.810257 
	C210.834000,229.419312 211.498932,227.208282 214.029877,224.534149 
	C226.437622,211.424469 227.571594,193.033539 217.207397,178.811096 
	C196.533615,150.441177 148.491653,153.529724 131.283081,184.970215 
M333.348694,250.724609 
	C334.993835,244.686661 337.707703,238.714523 338.084198,232.598480 
	C339.224548,214.074326 331.140167,199.835022 314.832794,191.231171 
	C298.097870,182.401749 281.411530,184.150085 266.734375,195.986664 
	C252.392105,207.553207 247.129333,223.130554 251.803635,241.077286 
	C256.639038,259.642578 269.334503,270.530884 288.093048,273.757660 
	C305.901276,276.820953 323.063629,267.945251 333.348694,250.724609 
z"/>
<path fill="#FCFEFD" opacity="1.000000" stroke="none" 
	d="
M323.462585,330.715637 
	C321.405182,330.918610 319.774750,330.999603 317.536011,331.110870 
	C317.536011,335.238770 317.536011,339.142761 317.536011,343.320099 
	C282.685638,343.320099 248.460815,343.320099 213.888947,343.320099 
	C213.579758,331.452179 217.827286,321.498260 224.969284,312.817139 
	C239.789642,294.802948 259.788910,286.895508 282.634308,283.926208 
	C286.111511,293.802246 289.506195,303.443787 293.309479,314.245941 
	C297.118408,303.394226 300.500854,293.757477 303.842987,284.235565 
	C340.660461,286.170837 374.888092,312.863037 373.676239,343.276611 
	C364.966797,343.276611 356.238129,343.276611 346.946411,343.276611 
	C346.946411,339.261963 346.946411,335.355957 346.946411,330.935455 
	C340.496918,330.935455 334.583374,330.935455 328.087982,330.935455 
	C328.087982,328.465759 328.273285,326.498138 328.021637,324.588043 
	C327.858826,323.352173 327.056946,322.200500 326.541443,321.011078 
	C325.913361,322.274109 325.053284,323.478088 324.713165,324.814392 
	C324.235992,326.689270 324.145477,328.662506 323.462585,330.715637 
z"/>
<path fill="#FEFEFE" opacity="1.000000" stroke="none" 
	d="
M131.469406,184.640656 
	C148.491653,153.529724 196.533615,150.441177 217.207397,178.811096 
	C227.571594,193.033539 226.437622,211.424469 214.029877,224.534149 
	C211.498932,227.208282 210.834000,229.419312 212.036026,232.810257 
	C213.624023,237.290085 214.726471,241.942032 216.315536,247.490295 
	C208.787140,244.827194 202.212204,242.223999 195.455963,240.237335 
	C192.421906,239.345154 188.946503,239.123230 185.806503,239.562714 
	C170.462677,241.710251 156.273453,239.212967 143.717117,229.768829 
	C128.944290,218.657516 124.410728,202.092880 131.469406,184.640656 
z"/>
<path fill="#FEFEFE" opacity="1.000000" stroke="none" 
	d="
M333.174255,251.053894 
	C323.063629,267.945251 305.901276,276.820953 288.093048,273.757660 
	C269.334503,270.530884 256.639038,259.642578 251.803635,241.077286 
	C247.129333,223.130554 252.392105,207.553207 266.734375,195.986664 
	C281.411530,184.150085 298.097870,182.401749 314.832794,191.231171 
	C331.140167,199.835022 339.224548,214.074326 338.084198,232.598480 
	C337.707703,238.714523 334.993835,244.686661 333.174255,251.053894 
z"/>
</svg>